<svg width="74" height="18" viewBox="0 0 74 18" fill="none" xmlns="http://www.w3.org/2000/svg">
<path d="M44.4071 0H46.4272C45.8669 1.41034 45.4555 3.0336 44.8333 4.30724H42.9039C43.4501 2.91137 43.8763 1.39456 44.4071 0Z" fill="#7E7E7E"/>
<path d="M6.95901 16.912H3.28753V5.46027H0V2.36682H10.6746L10.2465 5.46027H6.95901V16.912Z" fill="#7E7E7E"/>
<path d="M36.5636 16.912H32.9068V5.46027H29.6193V2.36682H40.2785L39.8498 5.46027H36.5636V16.912Z" fill="#7E7E7E"/>
<path d="M53.3877 16.912H49.8478V10.3745C49.9008 9.06139 49.7929 7.74627 49.5245 6.46073L52.7654 5.89945C52.9041 6.31022 52.9756 6.74005 52.9884 7.17317C53.4305 6.37332 54.245 5.86725 55.1394 5.83899C55.5994 5.84359 56.0543 5.95203 56.4682 6.15775L55.6562 9.10017C55.3451 8.90892 54.9861 8.80967 54.6251 8.8123C54.0962 8.78667 53.6074 9.0936 53.387 9.58586V16.912H53.3877Z" fill="#7E7E7E"/>
<path d="M24.6948 15.2443C24.4879 14.8598 24.3294 14.451 24.2234 14.0271C24.3307 14.451 24.4898 14.8598 24.6948 15.2443Z" fill="#7E7E7E"/>
<path d="M18.6502 11.785C18.6502 11.785 18.6502 11.6641 18.6502 11.6029C18.7857 10.0763 18.3538 8.55361 17.4415 7.3411C16.6219 6.31919 15.3806 5.75664 14.094 5.82433C12.7192 5.75861 11.3833 6.31196 10.4378 7.3411C9.50448 8.52798 9.04132 10.0349 9.1397 11.5563C9.1397 11.6503 9.1397 11.7534 9.1397 11.8461C9.10265 13.3852 9.69613 14.8718 10.7771 15.9384C11.727 16.7316 12.9166 17.1502 14.1387 17.1233H14.3444C15.8955 17.1555 17.4064 16.6179 18.6055 15.6065L17.2486 13.5607C16.4909 14.2008 15.5588 14.58 14.5801 14.6509H14.4926C13.8978 14.7029 13.3254 14.4025 13.0181 13.8774C12.8437 13.5035 12.7537 13.0928 12.7524 12.6787H18.6496V11.785H18.6502ZM12.753 10.1624C12.7735 9.6419 12.9536 9.1431 13.2686 8.7363C13.4794 8.50826 13.7745 8.388 14.0799 8.40245C14.5316 8.36697 14.9462 8.65613 15.0816 9.10038C15.1979 9.46249 15.2484 9.843 15.2298 10.2222V10.33H12.7971L12.753 10.1624Z" fill="#7E7E7E"/>
<path d="M26.612 11.603L26.361 11.206L29.4869 6.14227H25.3586L24.8871 7.06695C24.6182 7.62491 24.4386 8.22428 24.3569 8.84205C24.224 8.2624 24.0106 7.70509 23.7225 7.18853L22.9265 5.76306L19.1669 6.52147L22.1151 11.2993L21.9241 11.5852L18.5037 16.9112H22.823L23.4574 15.788C23.8011 15.2537 24.0413 14.6583 24.1659 14.0274C24.2732 14.4513 24.4329 14.86 24.6373 15.2445L25.3886 16.9112H29.8114L26.612 11.603Z" fill="#7E7E7E"/>
<path d="M48.2564 11.7848C48.2564 11.7848 48.2564 11.6638 48.2564 11.6027C48.3906 10.076 47.9594 8.55326 47.0452 7.34072C46.2294 6.31613 44.9868 5.75356 43.6995 5.82388C42.326 5.75816 40.9901 6.31153 40.0421 7.34072C39.1106 8.52763 38.6488 10.0346 38.7452 11.556C38.7452 11.65 38.7452 11.7532 38.7452 11.8459C38.7088 13.3851 39.3023 14.8717 40.3826 15.9383C41.3345 16.7289 42.5221 17.1476 43.7455 17.1232H43.9372C45.4877 17.1555 46.9979 16.6179 48.197 15.6064L46.8401 13.5132C46.1054 14.1579 45.1938 14.5542 44.231 14.6502H44.1422C43.5462 14.7021 42.977 14.4018 42.6678 13.8766C42.4934 13.5027 42.402 13.0919 42.402 12.6779H48.2992L48.2564 11.7848ZM42.3592 10.1621C42.3452 9.6554 42.4838 9.1579 42.7566 8.73597C42.9674 8.51055 43.2645 8.38896 43.5686 8.40211C44.0132 8.37385 44.4227 8.6617 44.5569 9.10006C44.6718 9.46218 44.7198 9.84271 44.7032 10.2219V10.3297H42.3458L42.3592 10.1621Z" fill="#7E7E7E"/>
<path d="M60.9053 16.912H57.382V10.3745C57.4344 9.06139 57.3245 7.74627 57.0562 6.46073L60.2997 5.89945C60.4358 6.31022 60.5099 6.74005 60.522 7.17317C60.9647 6.37332 61.7786 5.86725 62.6737 5.83899C63.1336 5.84359 63.5885 5.95203 63.9993 6.15775L63.1764 9.10017C62.8628 8.90892 62.5063 8.80967 62.1421 8.8123C61.6157 8.78667 61.1276 9.0936 60.9047 9.58586V16.912H60.9053Z" fill="#7E7E7E"/>
<path d="M73.437 15.2744C72.8819 14.8012 72.6065 14.0625 72.7145 13.3317C72.7145 13.3317 72.7145 13.3317 72.7145 13.2259V11.6032V9.51065C72.7305 8.94808 72.6691 8.38683 72.5401 7.84134C72.3389 7.16639 71.8668 6.61236 71.24 6.32385C70.4626 5.96436 69.6155 5.79217 68.7632 5.82437C67.8772 5.82634 66.9987 5.99064 66.1682 6.30939C65.4336 6.58279 64.7276 6.93374 64.062 7.35567L65.3282 9.61581C65.8833 9.18139 66.5081 8.84753 67.1712 8.62999C67.5418 8.52878 67.9225 8.47884 68.3077 8.47884C68.5658 8.44532 68.8252 8.53536 69.0137 8.72135C69.1261 8.95137 69.1715 9.209 69.1453 9.46465V10.133H68.5422C67.4504 10.0936 66.3688 10.3696 65.4163 10.921C65.1429 11.0939 64.8969 11.3002 64.6791 11.5414C64.1527 12.1493 63.8799 12.9446 63.9131 13.7569C63.8799 14.6954 64.2268 15.6082 64.8707 16.2733C65.5786 16.9181 66.5081 17.244 67.4504 17.1849C68.4272 17.2289 69.3842 16.9115 70.1508 16.2884C70.4236 16.7413 70.8325 17.0916 71.3135 17.2907H71.5192L73.391 15.4098L73.4677 15.3335L73.437 15.2744ZM69.2226 14.3333C69.1274 14.4272 69.0169 14.5035 68.8974 14.56C68.7415 14.6415 68.569 14.6835 68.3946 14.6835C68.0739 14.698 67.7679 14.5455 67.5852 14.2721C67.4804 14.0829 67.4223 13.8686 67.4223 13.6498C67.4223 13.6498 67.4223 13.6498 67.4223 13.5466C67.4415 13.2061 67.6235 12.8966 67.9085 12.7237C68.217 12.5562 68.562 12.4727 68.9115 12.4826H69.2219V14.3333H69.2226Z" fill="#7E7E7E"/>
<path d="M44.4071 0H46.4272C45.8669 1.41034 45.4555 3.0336 44.8333 4.30724H42.9039C43.4501 2.91137 43.8763 1.39456 44.4071 0Z" fill="#7E7E7E"/>
<path d="M6.95901 16.912H3.28753V5.46027H0V2.36682H10.6746L10.2465 5.46027H6.95901V16.912Z" fill="#7E7E7E"/>
<path d="M36.5636 16.912H32.9068V5.46027H29.6193V2.36682H40.2785L39.8498 5.46027H36.5636V16.912Z" fill="#7E7E7E"/>
<path d="M53.3877 16.912H49.8478V10.3745C49.9008 9.06139 49.7929 7.74627 49.5245 6.46073L52.7654 5.89945C52.9041 6.31022 52.9756 6.74005 52.9884 7.17317C53.4305 6.37332 54.245 5.86725 55.1394 5.83899C55.5994 5.84359 56.0543 5.95203 56.4682 6.15775L55.6562 9.10017C55.3451 8.90892 54.9861 8.80967 54.6251 8.8123C54.0962 8.78667 53.6074 9.0936 53.387 9.58586V16.912H53.3877Z" fill="#7E7E7E"/>
<path d="M24.6948 15.2443C24.4879 14.8598 24.3294 14.451 24.2234 14.0271C24.3307 14.451 24.4898 14.8598 24.6948 15.2443Z" fill="#7E7E7E"/>
<path d="M18.6502 11.785C18.6502 11.785 18.6502 11.6641 18.6502 11.6029C18.7857 10.0763 18.3538 8.55361 17.4415 7.3411C16.6219 6.31919 15.3806 5.75664 14.094 5.82433C12.7192 5.75861 11.3833 6.31196 10.4378 7.3411C9.50448 8.52798 9.04132 10.0349 9.1397 11.5563C9.1397 11.6503 9.1397 11.7534 9.1397 11.8461C9.10265 13.3852 9.69613 14.8718 10.7771 15.9384C11.727 16.7316 12.9166 17.1502 14.1387 17.1233H14.3444C15.8955 17.1555 17.4064 16.6179 18.6055 15.6065L17.2486 13.5607C16.4909 14.2008 15.5588 14.58 14.5801 14.6509H14.4926C13.8978 14.7029 13.3254 14.4025 13.0181 13.8774C12.8437 13.5035 12.7537 13.0928 12.7524 12.6787H18.6496V11.785H18.6502ZM12.753 10.1624C12.7735 9.6419 12.9536 9.1431 13.2686 8.7363C13.4794 8.50826 13.7745 8.388 14.0799 8.40245C14.5316 8.36697 14.9462 8.65613 15.0816 9.10038C15.1979 9.46249 15.2484 9.843 15.2298 10.2222V10.33H12.7971L12.753 10.1624Z" fill="#7E7E7E"/>
<path d="M26.612 11.603L26.361 11.206L29.4869 6.14227H25.3586L24.8871 7.06695C24.6182 7.62491 24.4386 8.22428 24.3569 8.84205C24.224 8.2624 24.0106 7.70509 23.7225 7.18853L22.9265 5.76306L19.1669 6.52147L22.1151 11.2993L21.9241 11.5852L18.5037 16.9112H22.823L23.4574 15.788C23.8011 15.2537 24.0413 14.6583 24.1659 14.0274C24.2732 14.4513 24.4329 14.86 24.6373 15.2445L25.3886 16.9112H29.8114L26.612 11.603Z" fill="#7E7E7E"/>
<path d="M48.2564 11.7848C48.2564 11.7848 48.2564 11.6638 48.2564 11.6027C48.3906 10.076 47.9594 8.55326 47.0452 7.34072C46.2294 6.31613 44.9868 5.75356 43.6995 5.82388C42.326 5.75816 40.9901 6.31153 40.0421 7.34072C39.1106 8.52763 38.6488 10.0346 38.7452 11.556C38.7452 11.65 38.7452 11.7532 38.7452 11.8459C38.7088 13.3851 39.3023 14.8717 40.3826 15.9383C41.3345 16.7289 42.5221 17.1476 43.7455 17.1232H43.9372C45.4877 17.1555 46.9979 16.6179 48.197 15.6064L46.8401 13.5132C46.1054 14.1579 45.1938 14.5542 44.231 14.6502H44.1422C43.5462 14.7021 42.977 14.4018 42.6678 13.8766C42.4934 13.5027 42.402 13.0919 42.402 12.6779H48.2992L48.2564 11.7848ZM42.3592 10.1621C42.3452 9.6554 42.4838 9.1579 42.7566 8.73597C42.9674 8.51055 43.2645 8.38896 43.5686 8.40211C44.0132 8.37385 44.4227 8.6617 44.5569 9.10006C44.6718 9.46218 44.7198 9.84271 44.7032 10.2219V10.3297H42.3458L42.3592 10.1621Z" fill="#7E7E7E"/>
<path d="M60.9053 16.912H57.382V10.3745C57.4344 9.06139 57.3245 7.74627 57.0562 6.46073L60.2997 5.89945C60.4358 6.31022 60.5099 6.74005 60.522 7.17317C60.9647 6.37332 61.7786 5.86725 62.6737 5.83899C63.1336 5.84359 63.5885 5.95203 63.9993 6.15775L63.1764 9.10017C62.8628 8.90892 62.5063 8.80967 62.1421 8.8123C61.6157 8.78667 61.1276 9.0936 60.9047 9.58586V16.912H60.9053Z" fill="#7E7E7E"/>
<path d="M73.437 15.2744C72.8819 14.8012 72.6065 14.0625 72.7145 13.3317C72.7145 13.3317 72.7145 13.3317 72.7145 13.2259V11.6032V9.51065C72.7305 8.94808 72.6691 8.38683 72.5401 7.84134C72.3389 7.16639 71.8668 6.61236 71.24 6.32385C70.4626 5.96436 69.6155 5.79217 68.7632 5.82437C67.8772 5.82634 66.9987 5.99064 66.1682 6.30939C65.4336 6.58279 64.7276 6.93374 64.062 7.35567L65.3282 9.61581C65.8833 9.18139 66.5081 8.84753 67.1712 8.62999C67.5418 8.52878 67.9225 8.47884 68.3077 8.47884C68.5658 8.44532 68.8252 8.53536 69.0137 8.72135C69.1261 8.95137 69.1715 9.209 69.1453 9.46465V10.133H68.5422C67.4504 10.0936 66.3688 10.3696 65.4163 10.921C65.1429 11.0939 64.8969 11.3002 64.6791 11.5414C64.1527 12.1493 63.8799 12.9446 63.9131 13.7569C63.8799 14.6954 64.2268 15.6082 64.8707 16.2733C65.5786 16.9181 66.5081 17.244 67.4504 17.1849C68.4272 17.2289 69.3842 16.9115 70.1508 16.2884C70.4236 16.7413 70.8325 17.0916 71.3135 17.2907H71.5192L73.391 15.4098L73.4677 15.3335L73.437 15.2744ZM69.2226 14.3333C69.1274 14.4272 69.0169 14.5035 68.8974 14.56C68.7415 14.6415 68.569 14.6835 68.3946 14.6835C68.0739 14.698 67.7679 14.5455 67.5852 14.2721C67.4804 14.0829 67.4223 13.8686 67.4223 13.6498C67.4223 13.6498 67.4223 13.6498 67.4223 13.5466C67.4415 13.2061 67.6235 12.8966 67.9085 12.7237C68.217 12.5562 68.562 12.4727 68.9115 12.4826H69.2219V14.3333H69.2226Z" fill="#7E7E7E"/>
</svg>
