<svg width="51" height="51" viewBox="0 0 51 51" fill="none" xmlns="http://www.w3.org/2000/svg">
<path d="M43.1697 7.73572C33.3303 -2.10371 17.4036 -2.10519 7.56275 7.73572C-2.27668 17.5751 -2.27817 33.5018 7.56275 43.3426C11.9484 47.7283 17.6675 50.295 23.8055 50.6679C24.3784 50.7402 25.5587 50.7247 25.5587 50.7147C39.3854 50.6116 50.5441 39.3931 50.5441 25.5392C50.5441 18.8139 47.9252 12.4912 43.1697 7.73572ZM12.2936 7.5886L15.8797 10.382L15.3929 13.7895H6.52038C8.03283 11.3724 9.99671 9.26585 12.2936 7.5886ZM3.20094 27.0202H13.6165V33.5369H4.64043C3.84886 31.4926 3.35201 29.303 3.20094 27.0202ZM25.3662 47.755C25.2607 47.755 25.2976 48.5311 25.2716 37.5671L41.8407 40.4273C37.7725 44.9247 31.8938 47.755 25.3662 47.755ZM43.898 37.7766L25.7755 34.6482C23.9651 34.3351 22.3052 35.7322 22.3095 37.5742L22.3331 47.547C15.3537 46.5899 9.39728 42.3796 6.04782 36.499H13.6165C15.2498 36.499 16.5786 35.1702 16.5786 33.5369V27.0202C16.5786 25.3869 15.2498 24.0581 13.6165 24.0581H3.20094C3.37156 21.4785 3.98412 19.018 4.96399 16.7516H15.3929C16.8574 16.7516 18.1181 15.6583 18.3252 14.2083L18.8119 10.8008C18.9618 9.75203 18.5357 8.69613 17.6999 8.04506L14.9643 5.91412C23.4488 1.39878 34.061 2.82859 41.0701 9.8399H32.6726C31.4731 9.8399 30.3997 10.5554 29.9384 11.6628L27.2231 18.1794C26.4118 20.1267 27.8417 22.2808 29.9574 22.2808H38.3296L39.4968 29.2844C39.7359 30.7185 40.9647 31.7595 42.4187 31.7595H46.6945C46.0637 33.9188 45.1133 35.9425 43.898 37.7766ZM42.4188 28.7975L41.2515 21.7939C41.0124 20.3597 39.7837 19.3187 38.3297 19.3187H29.9575L32.6727 12.8021H43.5575C46.9153 17.5835 48.1526 23.3089 47.3425 28.7975H42.4188Z" fill="white"/>
<path d="M43.1697 7.73572C33.3303 -2.10371 17.4036 -2.10519 7.56275 7.73572C-2.27668 17.5751 -2.27817 33.5018 7.56275 43.3426C11.9484 47.7283 17.6675 50.295 23.8055 50.6679C24.3784 50.7402 25.5587 50.7247 25.5587 50.7147C39.3854 50.6116 50.5441 39.3931 50.5441 25.5392C50.5441 18.8139 47.9252 12.4912 43.1697 7.73572ZM12.2936 7.5886L15.8797 10.382L15.3929 13.7895H6.52038C8.03283 11.3724 9.99671 9.26585 12.2936 7.5886ZM3.20094 27.0202H13.6165V33.5369H4.64043C3.84886 31.4926 3.35201 29.303 3.20094 27.0202ZM25.3662 47.755C25.2607 47.755 25.2976 48.5311 25.2716 37.5671L41.8407 40.4273C37.7725 44.9247 31.8938 47.755 25.3662 47.755ZM43.898 37.7766L25.7755 34.6482C23.9651 34.3351 22.3052 35.7322 22.3095 37.5742L22.3331 47.547C15.3537 46.5899 9.39728 42.3796 6.04782 36.499H13.6165C15.2498 36.499 16.5786 35.1702 16.5786 33.5369V27.0202C16.5786 25.3869 15.2498 24.0581 13.6165 24.0581H3.20094C3.37156 21.4785 3.98412 19.018 4.96399 16.7516H15.3929C16.8574 16.7516 18.1181 15.6583 18.3252 14.2083L18.8119 10.8008C18.9618 9.75203 18.5357 8.69613 17.6999 8.04506L14.9643 5.91412C23.4488 1.39878 34.061 2.82859 41.0701 9.8399H32.6726C31.4731 9.8399 30.3997 10.5554 29.9384 11.6628L27.2231 18.1794C26.4118 20.1267 27.8417 22.2808 29.9574 22.2808H38.3296L39.4968 29.2844C39.7359 30.7185 40.9647 31.7595 42.4187 31.7595H46.6945C46.0637 33.9188 45.1133 35.9425 43.898 37.7766ZM42.4188 28.7975L41.2515 21.7939C41.0124 20.3597 39.7837 19.3187 38.3297 19.3187H29.9575L32.6727 12.8021H43.5575C46.9153 17.5835 48.1526 23.3089 47.3425 28.7975H42.4188Z" fill="#00669C"/>
<path d="M43.1697 7.73572C33.3303 -2.10371 17.4036 -2.10519 7.56275 7.73572C-2.27668 17.5751 -2.27817 33.5018 7.56275 43.3426C11.9484 47.7283 17.6675 50.295 23.8055 50.6679C24.3784 50.7402 25.5587 50.7247 25.5587 50.7147C39.3854 50.6116 50.5441 39.3931 50.5441 25.5392C50.5441 18.8139 47.9252 12.4912 43.1697 7.73572ZM12.2936 7.5886L15.8797 10.382L15.3929 13.7895H6.52038C8.03283 11.3724 9.99671 9.26585 12.2936 7.5886ZM3.20094 27.0202H13.6165V33.5369H4.64043C3.84886 31.4926 3.35201 29.303 3.20094 27.0202ZM25.3662 47.755C25.2607 47.755 25.2976 48.5311 25.2716 37.5671L41.8407 40.4273C37.7725 44.9247 31.8938 47.755 25.3662 47.755ZM43.898 37.7766L25.7755 34.6482C23.9651 34.3351 22.3052 35.7322 22.3095 37.5742L22.3331 47.547C15.3537 46.5899 9.39728 42.3796 6.04782 36.499H13.6165C15.2498 36.499 16.5786 35.1702 16.5786 33.5369V27.0202C16.5786 25.3869 15.2498 24.0581 13.6165 24.0581H3.20094C3.37156 21.4785 3.98412 19.018 4.96399 16.7516H15.3929C16.8574 16.7516 18.1181 15.6583 18.3252 14.2083L18.8119 10.8008C18.9618 9.75203 18.5357 8.69613 17.6999 8.04506L14.9643 5.91412C23.4488 1.39878 34.061 2.82859 41.0701 9.8399H32.6726C31.4731 9.8399 30.3997 10.5554 29.9384 11.6628L27.2231 18.1794C26.4118 20.1267 27.8417 22.2808 29.9574 22.2808H38.3296L39.4968 29.2844C39.7359 30.7185 40.9647 31.7595 42.4187 31.7595H46.6945C46.0637 33.9188 45.1133 35.9425 43.898 37.7766ZM42.4188 28.7975L41.2515 21.7939C41.0124 20.3597 39.7837 19.3187 38.3297 19.3187H29.9575L32.6727 12.8021H43.5575C46.9153 17.5835 48.1526 23.3089 47.3425 28.7975H42.4188Z" fill="url(#paint0_linear)"/>
<defs>
<linearGradient id="paint0_linear" x1="-39.8415" y1="89.0029" x2="65.7727" y2="80.2998" gradientUnits="userSpaceOnUse">
<stop stop-color="#1568C4"/>
<stop offset="1" stop-color="#2DB3DE"/>
</linearGradient>
</defs>
</svg>
