<svg width="51" height="51" viewBox="0 0 51 51" fill="none" xmlns="http://www.w3.org/2000/svg">
<path d="M42.9916 7.37612C38.2349 2.61961 31.9107 0 25.1839 0C18.457 0 12.1328 2.61961 7.37612 7.37612C2.61961 12.1328 0 18.457 0 25.1839C0 31.9107 2.61961 38.2349 7.37612 42.9916C12.1328 47.7481 18.457 50.3677 25.1839 50.3677C29.7891 50.3677 34.295 49.1127 38.2147 46.7384C39.1441 46.1753 39.4412 44.9655 38.8782 44.0362C38.3151 43.1066 37.1054 42.8097 36.1759 43.3727C32.8712 45.3746 29.0701 46.4328 25.1839 46.4328C13.4672 46.4328 3.93498 36.9006 3.93498 25.1839C3.93498 13.4672 13.4672 3.93498 25.1839 3.93498C36.9006 3.93498 46.4328 13.4672 46.4328 25.1839C46.4328 29.3735 45.1868 33.4516 42.8297 36.9774C42.2258 37.8807 42.4685 39.1026 43.3717 39.7065C44.2752 40.3106 45.497 40.0677 46.1008 39.1645C48.8923 34.9892 50.3677 30.1547 50.3677 25.1839C50.3677 18.457 47.7481 12.1328 42.9916 7.37612Z" fill="white"/>
<path d="M42.9916 7.37612C38.2349 2.61961 31.9107 0 25.1839 0C18.457 0 12.1328 2.61961 7.37612 7.37612C2.61961 12.1328 0 18.457 0 25.1839C0 31.9107 2.61961 38.2349 7.37612 42.9916C12.1328 47.7481 18.457 50.3677 25.1839 50.3677C29.7891 50.3677 34.295 49.1127 38.2147 46.7384C39.1441 46.1753 39.4412 44.9655 38.8782 44.0362C38.3151 43.1066 37.1054 42.8097 36.1759 43.3727C32.8712 45.3746 29.0701 46.4328 25.1839 46.4328C13.4672 46.4328 3.93498 36.9006 3.93498 25.1839C3.93498 13.4672 13.4672 3.93498 25.1839 3.93498C36.9006 3.93498 46.4328 13.4672 46.4328 25.1839C46.4328 29.3735 45.1868 33.4516 42.8297 36.9774C42.2258 37.8807 42.4685 39.1026 43.3717 39.7065C44.2752 40.3106 45.497 40.0677 46.1008 39.1645C48.8923 34.9892 50.3677 30.1547 50.3677 25.1839C50.3677 18.457 47.7481 12.1328 42.9916 7.37612Z" fill="#00669C"/>
<path d="M42.9916 7.37612C38.2349 2.61961 31.9107 0 25.1839 0C18.457 0 12.1328 2.61961 7.37612 7.37612C2.61961 12.1328 0 18.457 0 25.1839C0 31.9107 2.61961 38.2349 7.37612 42.9916C12.1328 47.7481 18.457 50.3677 25.1839 50.3677C29.7891 50.3677 34.295 49.1127 38.2147 46.7384C39.1441 46.1753 39.4412 44.9655 38.8782 44.0362C38.3151 43.1066 37.1054 42.8097 36.1759 43.3727C32.8712 45.3746 29.0701 46.4328 25.1839 46.4328C13.4672 46.4328 3.93498 36.9006 3.93498 25.1839C3.93498 13.4672 13.4672 3.93498 25.1839 3.93498C36.9006 3.93498 46.4328 13.4672 46.4328 25.1839C46.4328 29.3735 45.1868 33.4516 42.8297 36.9774C42.2258 37.8807 42.4685 39.1026 43.3717 39.7065C44.2752 40.3106 45.497 40.0677 46.1008 39.1645C48.8923 34.9892 50.3677 30.1547 50.3677 25.1839C50.3677 18.457 47.7481 12.1328 42.9916 7.37612Z" fill="url(#paint0_linear)"/>
<path d="M18.9316 37.1077C19.229 37.2686 19.5494 37.3448 19.8654 37.3448C20.5648 37.3448 21.2421 36.9709 21.5979 36.3126L32.233 16.6377C32.7497 15.6817 32.3937 14.4879 31.4378 13.9713C30.4817 13.4546 29.2879 13.8107 28.7715 14.7665L18.1364 34.4414C17.6196 35.3973 17.9756 36.5911 18.9316 37.1077Z" fill="white"/>
<path d="M18.9316 37.1077C19.229 37.2686 19.5494 37.3448 19.8654 37.3448C20.5648 37.3448 21.2421 36.9709 21.5979 36.3126L32.233 16.6377C32.7497 15.6817 32.3937 14.4879 31.4378 13.9713C30.4817 13.4546 29.2879 13.8107 28.7715 14.7665L18.1364 34.4414C17.6196 35.3973 17.9756 36.5911 18.9316 37.1077Z" fill="#00669C"/>
<path d="M18.9316 37.1077C19.229 37.2686 19.5494 37.3448 19.8654 37.3448C20.5648 37.3448 21.2421 36.9709 21.5979 36.3126L32.233 16.6377C32.7497 15.6817 32.3937 14.4879 31.4378 13.9713C30.4817 13.4546 29.2879 13.8107 28.7715 14.7665L18.1364 34.4414C17.6196 35.3973 17.9756 36.5911 18.9316 37.1077Z" fill="url(#paint1_linear)"/>
<path d="M21.7549 18.6533C21.7549 15.9411 19.5483 13.7346 16.8361 13.7346C14.124 13.7346 11.9174 15.9411 11.9174 18.6533C11.9174 21.3655 14.124 23.572 16.8361 23.572C19.5483 23.572 21.7549 21.3655 21.7549 18.6533ZM16.8361 19.637C16.2937 19.637 15.8524 19.1957 15.8524 18.6533C15.8524 18.1108 16.2937 17.6695 16.8361 17.6695C17.3786 17.6695 17.8199 18.1108 17.8199 18.6533C17.8199 19.1957 17.3786 19.637 16.8361 19.637Z" fill="white"/>
<path d="M21.7549 18.6533C21.7549 15.9411 19.5483 13.7346 16.8361 13.7346C14.124 13.7346 11.9174 15.9411 11.9174 18.6533C11.9174 21.3655 14.124 23.572 16.8361 23.572C19.5483 23.572 21.7549 21.3655 21.7549 18.6533ZM16.8361 19.637C16.2937 19.637 15.8524 19.1957 15.8524 18.6533C15.8524 18.1108 16.2937 17.6695 16.8361 17.6695C17.3786 17.6695 17.8199 18.1108 17.8199 18.6533C17.8199 19.1957 17.3786 19.637 16.8361 19.637Z" fill="#00669C"/>
<path d="M21.7549 18.6533C21.7549 15.9411 19.5483 13.7346 16.8361 13.7346C14.124 13.7346 11.9174 15.9411 11.9174 18.6533C11.9174 21.3655 14.124 23.572 16.8361 23.572C19.5483 23.572 21.7549 21.3655 21.7549 18.6533ZM16.8361 19.637C16.2937 19.637 15.8524 19.1957 15.8524 18.6533C15.8524 18.1108 16.2937 17.6695 16.8361 17.6695C17.3786 17.6695 17.8199 18.1108 17.8199 18.6533C17.8199 19.1957 17.3786 19.637 16.8361 19.637Z" fill="url(#paint2_linear)"/>
<path d="M33.068 37.3444C35.7801 37.3444 37.9867 35.1379 37.9867 32.4257C37.9867 29.7135 35.7801 27.507 33.068 27.507C30.3558 27.507 28.1492 29.7135 28.1492 32.4257C28.1492 35.1379 30.3558 37.3444 33.068 37.3444ZM33.068 31.4419C33.6104 31.4419 34.0517 31.8832 34.0517 32.4257C34.0517 32.9681 33.6104 33.4094 33.068 33.4094C32.5255 33.4094 32.0842 32.9681 32.0842 32.4257C32.0842 31.8832 32.5255 31.4419 33.068 31.4419Z" fill="white"/>
<path d="M33.068 37.3444C35.7801 37.3444 37.9867 35.1379 37.9867 32.4257C37.9867 29.7135 35.7801 27.507 33.068 27.507C30.3558 27.507 28.1492 29.7135 28.1492 32.4257C28.1492 35.1379 30.3558 37.3444 33.068 37.3444ZM33.068 31.4419C33.6104 31.4419 34.0517 31.8832 34.0517 32.4257C34.0517 32.9681 33.6104 33.4094 33.068 33.4094C32.5255 33.4094 32.0842 32.9681 32.0842 32.4257C32.0842 31.8832 32.5255 31.4419 33.068 31.4419Z" fill="#00669C"/>
<path d="M33.068 37.3444C35.7801 37.3444 37.9867 35.1379 37.9867 32.4257C37.9867 29.7135 35.7801 27.507 33.068 27.507C30.3558 27.507 28.1492 29.7135 28.1492 32.4257C28.1492 35.1379 30.3558 37.3444 33.068 37.3444ZM33.068 31.4419C33.6104 31.4419 34.0517 31.8832 34.0517 32.4257C34.0517 32.9681 33.6104 33.4094 33.068 33.4094C32.5255 33.4094 32.0842 32.9681 32.0842 32.4257C32.0842 31.8832 32.5255 31.4419 33.068 31.4419Z" fill="url(#paint3_linear)"/>
<defs>
<linearGradient id="paint0_linear" x1="-40.0291" y1="88.6472" x2="65.598" y2="79.942" gradientUnits="userSpaceOnUse">
<stop stop-color="#1568C4"/>
<stop offset="1" stop-color="#2DB3DE"/>
</linearGradient>
<linearGradient id="paint1_linear" x1="6.31937" y1="55.2888" x2="37.0042" y2="53.7282" gradientUnits="userSpaceOnUse">
<stop stop-color="#1568C4"/>
<stop offset="1" stop-color="#2DB3DE"/>
</linearGradient>
<linearGradient id="paint2_linear" x1="4.09924" y1="31.0485" x2="24.7295" y2="29.3482" gradientUnits="userSpaceOnUse">
<stop stop-color="#1568C4"/>
<stop offset="1" stop-color="#2DB3DE"/>
</linearGradient>
<linearGradient id="paint3_linear" x1="20.331" y1="44.8209" x2="40.9613" y2="43.1206" gradientUnits="userSpaceOnUse">
<stop stop-color="#1568C4"/>
<stop offset="1" stop-color="#2DB3DE"/>
</linearGradient>
</defs>
</svg>
