<svg width="53" height="51" viewBox="0 0 53 51" fill="none" xmlns="http://www.w3.org/2000/svg">
<path d="M49.39 17.967C48.704 15.8426 48.9964 12.6537 47.2132 10.1914C45.4161 7.70982 42.2903 7.00446 40.5253 5.71359C38.7789 4.43632 37.1541 1.65686 34.2164 0.698247C31.3616 -0.233352 28.4423 1.03082 26.1788 1.03082C23.9156 1.03082 20.9966 -0.233657 18.1412 0.698145C15.2041 1.65655 13.578 4.43663 11.8327 5.71328C10.0696 7.00264 6.94153 7.70992 5.14465 10.1911C3.36299 12.6513 3.6525 15.8475 2.96767 17.9669C2.31593 19.9839 0.182617 22.4047 0.182617 25.5397C0.182617 28.6766 2.3135 31.088 2.96767 33.1124C3.65372 35.2368 3.36127 38.4257 5.14444 40.8879C6.94153 43.3696 10.0672 44.0749 11.8324 45.3659C13.5785 46.6429 15.2036 49.4226 18.1412 50.3811C20.9941 51.3121 23.918 50.0485 26.1788 50.0485C28.4366 50.0485 31.3672 51.3108 34.2164 50.3812C37.1537 49.4228 38.7788 46.6433 40.525 45.3661C42.2881 44.0767 45.4162 43.3694 47.213 40.8882C48.9948 38.4279 48.7051 35.232 49.39 33.1125C50.0418 31.0954 52.1751 28.6746 52.1751 25.5397C52.1751 22.403 50.0447 19.9922 49.39 17.967ZM45.525 31.8635C44.7253 34.3387 44.9348 37.1088 43.9234 38.5055C42.8984 39.9208 40.2054 40.5672 38.1275 42.0872C36.0722 43.5902 34.6318 45.9728 32.9564 46.5194C31.3715 47.0367 28.7885 45.9864 26.1789 45.9864C23.5503 45.9864 20.9939 47.039 19.4013 46.5194C17.7262 45.9728 16.2878 43.5918 14.2303 42.0871C12.1646 40.5764 9.45637 39.9166 8.43429 38.5053C7.42612 37.1133 7.62769 34.324 6.83288 31.8636C6.0538 29.4529 4.24453 27.3656 4.24453 25.5397C4.24453 23.7119 6.05218 21.6318 6.83268 19.2159C7.63236 16.7408 7.42287 13.9704 8.43429 12.5739C9.4587 11.1595 12.1537 10.5109 14.2303 8.99216C16.2921 7.48428 17.7235 5.10735 19.4011 4.55991C20.9848 4.04323 23.5762 5.09293 26.1787 5.09293C28.8122 5.09293 31.3621 4.03968 32.9563 4.55991C34.6313 5.10644 36.0709 7.48834 38.1275 8.99226C40.1928 10.503 42.9013 11.1627 43.9234 12.574C44.9318 13.9663 44.7291 16.7527 45.5248 19.2157V19.2158C46.3039 21.6264 48.1132 23.7137 48.1132 25.5397C48.1132 27.3674 46.3055 29.4475 45.525 31.8635ZM35.5358 19.0208C36.3289 19.814 36.3289 21.0999 35.5358 21.893L25.3702 32.0585C24.577 32.8517 23.291 32.8516 22.4979 32.0585L16.822 26.3826C16.0288 25.5894 16.0287 24.3035 16.8219 23.5104C17.6151 22.7174 18.9012 22.7173 19.6941 23.5104L23.934 27.7503L32.6634 19.0209C33.4566 18.2277 34.7426 18.2277 35.5358 19.0208Z" fill="white"/>
<path d="M49.39 17.967C48.704 15.8426 48.9964 12.6537 47.2132 10.1914C45.4161 7.70982 42.2903 7.00446 40.5253 5.71359C38.7789 4.43632 37.1541 1.65686 34.2164 0.698247C31.3616 -0.233352 28.4423 1.03082 26.1788 1.03082C23.9156 1.03082 20.9966 -0.233657 18.1412 0.698145C15.2041 1.65655 13.578 4.43663 11.8327 5.71328C10.0696 7.00264 6.94153 7.70992 5.14465 10.1911C3.36299 12.6513 3.6525 15.8475 2.96767 17.9669C2.31593 19.9839 0.182617 22.4047 0.182617 25.5397C0.182617 28.6766 2.3135 31.088 2.96767 33.1124C3.65372 35.2368 3.36127 38.4257 5.14444 40.8879C6.94153 43.3696 10.0672 44.0749 11.8324 45.3659C13.5785 46.6429 15.2036 49.4226 18.1412 50.3811C20.9941 51.3121 23.918 50.0485 26.1788 50.0485C28.4366 50.0485 31.3672 51.3108 34.2164 50.3812C37.1537 49.4228 38.7788 46.6433 40.525 45.3661C42.2881 44.0767 45.4162 43.3694 47.213 40.8882C48.9948 38.4279 48.7051 35.232 49.39 33.1125C50.0418 31.0954 52.1751 28.6746 52.1751 25.5397C52.1751 22.403 50.0447 19.9922 49.39 17.967ZM45.525 31.8635C44.7253 34.3387 44.9348 37.1088 43.9234 38.5055C42.8984 39.9208 40.2054 40.5672 38.1275 42.0872C36.0722 43.5902 34.6318 45.9728 32.9564 46.5194C31.3715 47.0367 28.7885 45.9864 26.1789 45.9864C23.5503 45.9864 20.9939 47.039 19.4013 46.5194C17.7262 45.9728 16.2878 43.5918 14.2303 42.0871C12.1646 40.5764 9.45637 39.9166 8.43429 38.5053C7.42612 37.1133 7.62769 34.324 6.83288 31.8636C6.0538 29.4529 4.24453 27.3656 4.24453 25.5397C4.24453 23.7119 6.05218 21.6318 6.83268 19.2159C7.63236 16.7408 7.42287 13.9704 8.43429 12.5739C9.4587 11.1595 12.1537 10.5109 14.2303 8.99216C16.2921 7.48428 17.7235 5.10735 19.4011 4.55991C20.9848 4.04323 23.5762 5.09293 26.1787 5.09293C28.8122 5.09293 31.3621 4.03968 32.9563 4.55991C34.6313 5.10644 36.0709 7.48834 38.1275 8.99226C40.1928 10.503 42.9013 11.1627 43.9234 12.574C44.9318 13.9663 44.7291 16.7527 45.5248 19.2157V19.2158C46.3039 21.6264 48.1132 23.7137 48.1132 25.5397C48.1132 27.3674 46.3055 29.4475 45.525 31.8635ZM35.5358 19.0208C36.3289 19.814 36.3289 21.0999 35.5358 21.893L25.3702 32.0585C24.577 32.8517 23.291 32.8516 22.4979 32.0585L16.822 26.3826C16.0288 25.5894 16.0287 24.3035 16.8219 23.5104C17.6151 22.7174 18.9012 22.7173 19.6941 23.5104L23.934 27.7503L32.6634 19.0209C33.4566 18.2277 34.7426 18.2277 35.5358 19.0208Z" fill="#00669C"/>
<path d="M49.39 17.967C48.704 15.8426 48.9964 12.6537 47.2132 10.1914C45.4161 7.70982 42.2903 7.00446 40.5253 5.71359C38.7789 4.43632 37.1541 1.65686 34.2164 0.698247C31.3616 -0.233352 28.4423 1.03082 26.1788 1.03082C23.9156 1.03082 20.9966 -0.233657 18.1412 0.698145C15.2041 1.65655 13.578 4.43663 11.8327 5.71328C10.0696 7.00264 6.94153 7.70992 5.14465 10.1911C3.36299 12.6513 3.6525 15.8475 2.96767 17.9669C2.31593 19.9839 0.182617 22.4047 0.182617 25.5397C0.182617 28.6766 2.3135 31.088 2.96767 33.1124C3.65372 35.2368 3.36127 38.4257 5.14444 40.8879C6.94153 43.3696 10.0672 44.0749 11.8324 45.3659C13.5785 46.6429 15.2036 49.4226 18.1412 50.3811C20.9941 51.3121 23.918 50.0485 26.1788 50.0485C28.4366 50.0485 31.3672 51.3108 34.2164 50.3812C37.1537 49.4228 38.7788 46.6433 40.525 45.3661C42.2881 44.0767 45.4162 43.3694 47.213 40.8882C48.9948 38.4279 48.7051 35.232 49.39 33.1125C50.0418 31.0954 52.1751 28.6746 52.1751 25.5397C52.1751 22.403 50.0447 19.9922 49.39 17.967ZM45.525 31.8635C44.7253 34.3387 44.9348 37.1088 43.9234 38.5055C42.8984 39.9208 40.2054 40.5672 38.1275 42.0872C36.0722 43.5902 34.6318 45.9728 32.9564 46.5194C31.3715 47.0367 28.7885 45.9864 26.1789 45.9864C23.5503 45.9864 20.9939 47.039 19.4013 46.5194C17.7262 45.9728 16.2878 43.5918 14.2303 42.0871C12.1646 40.5764 9.45637 39.9166 8.43429 38.5053C7.42612 37.1133 7.62769 34.324 6.83288 31.8636C6.0538 29.4529 4.24453 27.3656 4.24453 25.5397C4.24453 23.7119 6.05218 21.6318 6.83268 19.2159C7.63236 16.7408 7.42287 13.9704 8.43429 12.5739C9.4587 11.1595 12.1537 10.5109 14.2303 8.99216C16.2921 7.48428 17.7235 5.10735 19.4011 4.55991C20.9848 4.04323 23.5762 5.09293 26.1787 5.09293C28.8122 5.09293 31.3621 4.03968 32.9563 4.55991C34.6313 5.10644 36.0709 7.48834 38.1275 8.99226C40.1928 10.503 42.9013 11.1627 43.9234 12.574C44.9318 13.9663 44.7291 16.7527 45.5248 19.2157V19.2158C46.3039 21.6264 48.1132 23.7137 48.1132 25.5397C48.1132 27.3674 46.3055 29.4475 45.525 31.8635ZM35.5358 19.0208C36.3289 19.814 36.3289 21.0999 35.5358 21.893L25.3702 32.0585C24.577 32.8517 23.291 32.8516 22.4979 32.0585L16.822 26.3826C16.0288 25.5894 16.0287 24.3035 16.8219 23.5104C17.6151 22.7174 18.9012 22.7173 19.6941 23.5104L23.934 27.7503L32.6634 19.0209C33.4566 18.2277 34.7426 18.2277 35.5358 19.0208Z" fill="url(#paint0_linear)"/>
<defs>
<linearGradient id="paint0_linear" x1="-41.1377" y1="89.0028" x2="67.8484" y2="79.731" gradientUnits="userSpaceOnUse">
<stop stop-color="#1568C4"/>
<stop offset="1" stop-color="#2DB3DE"/>
</linearGradient>
</defs>
</svg>
