<svg width="45" height="31" viewBox="0 0 45 31" fill="none" xmlns="http://www.w3.org/2000/svg">
<path d="M38.7507 0.749512H6.25822C3.35775 0.749512 1 2.87909 1 5.49887V25.5571C1 28.1769 3.35775 30.3064 6.25822 30.3064H38.7418C41.6422 30.3064 44 28.1769 44 25.5571V5.50691C44.0089 2.88713 41.6511 0.749512 38.7507 0.749512ZM41.6066 25.5571C41.6066 26.9795 40.3255 28.1367 38.7507 28.1367H6.25822C4.68342 28.1367 3.40223 26.9795 3.40223 25.5571V5.50691C3.40223 4.08451 4.68342 2.92731 6.25822 2.92731H38.7418C40.3166 2.92731 41.5977 4.08451 41.5977 5.50691V25.5571H41.6066Z" fill="url(#paint0_linear)"/>
<path d="M38.7507 0.749512H6.25822C3.35775 0.749512 1 2.87909 1 5.49887V25.5571C1 28.1769 3.35775 30.3064 6.25822 30.3064H38.7418C41.6422 30.3064 44 28.1769 44 25.5571V5.50691C44.0089 2.88713 41.6511 0.749512 38.7507 0.749512ZM41.6066 25.5571C41.6066 26.9795 40.3255 28.1367 38.7507 28.1367H6.25822C4.68342 28.1367 3.40223 26.9795 3.40223 25.5571V5.50691C3.40223 4.08451 4.68342 2.92731 6.25822 2.92731H38.7418C40.3166 2.92731 41.5977 4.08451 41.5977 5.50691V25.5571H41.6066Z" fill="url(#paint1_linear)"/>
<path d="M38.7507 0.749512H6.25822C3.35775 0.749512 1 2.87909 1 5.49887V25.5571C1 28.1769 3.35775 30.3064 6.25822 30.3064H38.7418C41.6422 30.3064 44 28.1769 44 25.5571V5.50691C44.0089 2.88713 41.6511 0.749512 38.7507 0.749512ZM41.6066 25.5571C41.6066 26.9795 40.3255 28.1367 38.7507 28.1367H6.25822C4.68342 28.1367 3.40223 26.9795 3.40223 25.5571V5.50691C3.40223 4.08451 4.68342 2.92731 6.25822 2.92731H38.7418C40.3166 2.92731 41.5977 4.08451 41.5977 5.50691V25.5571H41.6066Z" stroke="black"/>
<path d="M38.7507 0.749512H6.25822C3.35775 0.749512 1 2.87909 1 5.49887V25.5571C1 28.1769 3.35775 30.3064 6.25822 30.3064H38.7418C41.6422 30.3064 44 28.1769 44 25.5571V5.50691C44.0089 2.88713 41.6511 0.749512 38.7507 0.749512ZM41.6066 25.5571C41.6066 26.9795 40.3255 28.1367 38.7507 28.1367H6.25822C4.68342 28.1367 3.40223 26.9795 3.40223 25.5571V5.50691C3.40223 4.08451 4.68342 2.92731 6.25822 2.92731H38.7418C40.3166 2.92731 41.5977 4.08451 41.5977 5.50691V25.5571H41.6066Z" stroke="url(#paint2_linear)"/>
<path d="M28.1059 15.2788L38.6224 6.76047C39.1117 6.35866 39.1562 5.67558 38.7113 5.22556C38.2665 4.78357 37.5102 4.74339 37.012 5.1452L22.5096 16.9021L19.6803 14.6198C19.6714 14.6118 19.6625 14.6037 19.6625 14.5957C19.6002 14.5395 19.538 14.4912 19.4668 14.443L7.95385 5.13716C7.45561 4.73536 6.69935 4.77554 6.25449 5.22556C5.80964 5.67558 5.85412 6.35866 6.35236 6.76047L16.9934 15.3511L6.39685 24.3114C5.9164 24.7213 5.88971 25.4043 6.34347 25.8463C6.58369 26.0713 6.90399 26.1919 7.22428 26.1919C7.51789 26.1919 7.8115 26.0954 8.04282 25.9026L18.7995 16.8137L21.7178 19.1683C21.9491 19.3531 22.2338 19.4415 22.5185 19.4415C22.8032 19.4415 23.0968 19.3451 23.3192 19.1602L26.3176 16.7333L37.012 25.9106C37.2433 26.1115 37.5458 26.2079 37.8394 26.2079C38.1597 26.2079 38.4711 26.0954 38.7113 25.8704C39.1651 25.4365 39.1473 24.7454 38.6669 24.3355L28.1059 15.2788Z" fill="url(#paint3_linear)"/>
<path d="M28.1059 15.2788L38.6224 6.76047C39.1117 6.35866 39.1562 5.67558 38.7113 5.22556C38.2665 4.78357 37.5102 4.74339 37.012 5.1452L22.5096 16.9021L19.6803 14.6198C19.6714 14.6118 19.6625 14.6037 19.6625 14.5957C19.6002 14.5395 19.538 14.4912 19.4668 14.443L7.95385 5.13716C7.45561 4.73536 6.69935 4.77554 6.25449 5.22556C5.80964 5.67558 5.85412 6.35866 6.35236 6.76047L16.9934 15.3511L6.39685 24.3114C5.9164 24.7213 5.88971 25.4043 6.34347 25.8463C6.58369 26.0713 6.90399 26.1919 7.22428 26.1919C7.51789 26.1919 7.8115 26.0954 8.04282 25.9026L18.7995 16.8137L21.7178 19.1683C21.9491 19.3531 22.2338 19.4415 22.5185 19.4415C22.8032 19.4415 23.0968 19.3451 23.3192 19.1602L26.3176 16.7333L37.012 25.9106C37.2433 26.1115 37.5458 26.2079 37.8394 26.2079C38.1597 26.2079 38.4711 26.0954 38.7113 25.8704C39.1651 25.4365 39.1473 24.7454 38.6669 24.3355L28.1059 15.2788Z" fill="url(#paint4_linear)"/>
<path d="M28.1059 15.2788L38.6224 6.76047C39.1117 6.35866 39.1562 5.67558 38.7113 5.22556C38.2665 4.78357 37.5102 4.74339 37.012 5.1452L22.5096 16.9021L19.6803 14.6198C19.6714 14.6118 19.6625 14.6037 19.6625 14.5957C19.6002 14.5395 19.538 14.4912 19.4668 14.443L7.95385 5.13716C7.45561 4.73536 6.69935 4.77554 6.25449 5.22556C5.80964 5.67558 5.85412 6.35866 6.35236 6.76047L16.9934 15.3511L6.39685 24.3114C5.9164 24.7213 5.88971 25.4043 6.34347 25.8463C6.58369 26.0713 6.90399 26.1919 7.22428 26.1919C7.51789 26.1919 7.8115 26.0954 8.04282 25.9026L18.7995 16.8137L21.7178 19.1683C21.9491 19.3531 22.2338 19.4415 22.5185 19.4415C22.8032 19.4415 23.0968 19.3451 23.3192 19.1602L26.3176 16.7333L37.012 25.9106C37.2433 26.1115 37.5458 26.2079 37.8394 26.2079C38.1597 26.2079 38.4711 26.0954 38.7113 25.8704C39.1651 25.4365 39.1473 24.7454 38.6669 24.3355L28.1059 15.2788Z" stroke="black"/>
<path d="M28.1059 15.2788L38.6224 6.76047C39.1117 6.35866 39.1562 5.67558 38.7113 5.22556C38.2665 4.78357 37.5102 4.74339 37.012 5.1452L22.5096 16.9021L19.6803 14.6198C19.6714 14.6118 19.6625 14.6037 19.6625 14.5957C19.6002 14.5395 19.538 14.4912 19.4668 14.443L7.95385 5.13716C7.45561 4.73536 6.69935 4.77554 6.25449 5.22556C5.80964 5.67558 5.85412 6.35866 6.35236 6.76047L16.9934 15.3511L6.39685 24.3114C5.9164 24.7213 5.88971 25.4043 6.34347 25.8463C6.58369 26.0713 6.90399 26.1919 7.22428 26.1919C7.51789 26.1919 7.8115 26.0954 8.04282 25.9026L18.7995 16.8137L21.7178 19.1683C21.9491 19.3531 22.2338 19.4415 22.5185 19.4415C22.8032 19.4415 23.0968 19.3451 23.3192 19.1602L26.3176 16.7333L37.012 25.9106C37.2433 26.1115 37.5458 26.2079 37.8394 26.2079C38.1597 26.2079 38.4711 26.0954 38.7113 25.8704C39.1651 25.4365 39.1473 24.7454 38.6669 24.3355L28.1059 15.2788Z" stroke="url(#paint5_linear)"/>
<defs>
<linearGradient id="paint0_linear" x1="-33.1737" y1="52.7697" x2="56.3282" y2="42.0386" gradientUnits="userSpaceOnUse">
<stop stop-color="#1568C4"/>
<stop offset="1" stop-color="#2DB3DE"/>
</linearGradient>
<linearGradient id="paint1_linear" x1="-33.1737" y1="52.7697" x2="56.3282" y2="42.0386" gradientUnits="userSpaceOnUse">
<stop stop-color="#1568C4"/>
<stop offset="1" stop-color="#2DB3DE"/>
</linearGradient>
<linearGradient id="paint2_linear" x1="-33.1737" y1="52.7697" x2="56.3282" y2="42.0386" gradientUnits="userSpaceOnUse">
<stop stop-color="#1568C4"/>
<stop offset="1" stop-color="#2DB3DE"/>
</linearGradient>
<linearGradient id="paint3_linear" x1="-20.3517" y1="42.4323" x2="48.3956" y2="33.6495" gradientUnits="userSpaceOnUse">
<stop stop-color="#1568C4"/>
<stop offset="1" stop-color="#2DB3DE"/>
</linearGradient>
<linearGradient id="paint4_linear" x1="-20.3517" y1="42.4323" x2="48.3956" y2="33.6495" gradientUnits="userSpaceOnUse">
<stop stop-color="#1568C4"/>
<stop offset="1" stop-color="#2DB3DE"/>
</linearGradient>
<linearGradient id="paint5_linear" x1="-20.3517" y1="42.4323" x2="48.3956" y2="33.6495" gradientUnits="userSpaceOnUse">
<stop stop-color="#1568C4"/>
<stop offset="1" stop-color="#2DB3DE"/>
</linearGradient>
</defs>
</svg>
