<svg width="60" height="60" viewBox="0 0 60 60" fill="none" xmlns="http://www.w3.org/2000/svg">
<path d="M30.1136 29.5647C27.8348 29.5647 25.5556 28.6972 23.8211 26.9623C20.3513 23.4929 20.3513 17.8473 23.8211 14.3774C25.5016 12.6965 27.7364 11.7709 30.1136 11.7709C32.4907 11.7709 34.7251 12.697 36.406 14.3774C39.8758 17.8473 39.8758 23.4929 36.406 26.9623C34.671 28.6972 32.3923 29.5647 30.1136 29.5647ZM30.1136 15.2934C28.7361 15.2934 27.3587 15.8176 26.31 16.8663C24.2125 18.9638 24.2125 22.3764 26.31 24.4739C27.3258 25.4897 28.6766 26.049 30.1136 26.049C31.5505 26.049 32.9013 25.4897 33.9171 24.4739C36.0146 22.3764 36.0146 18.9638 33.9171 16.8663C32.8684 15.8176 31.491 15.2934 30.1136 15.2934Z" fill="black"/>
<path d="M30.1136 29.5647C27.8348 29.5647 25.5556 28.6972 23.8211 26.9623C20.3513 23.4929 20.3513 17.8473 23.8211 14.3774C25.5016 12.6965 27.7364 11.7709 30.1136 11.7709C32.4907 11.7709 34.7251 12.697 36.406 14.3774C39.8758 17.8473 39.8758 23.4929 36.406 26.9623C34.671 28.6972 32.3923 29.5647 30.1136 29.5647ZM30.1136 15.2934C28.7361 15.2934 27.3587 15.8176 26.31 16.8663C24.2125 18.9638 24.2125 22.3764 26.31 24.4739C27.3258 25.4897 28.6766 26.049 30.1136 26.049C31.5505 26.049 32.9013 25.4897 33.9171 24.4739C36.0146 22.3764 36.0146 18.9638 33.9171 16.8663C32.8684 15.8176 31.491 15.2934 30.1136 15.2934Z" fill="url(#paint0_linear)"/>
<path d="M30.1341 60L28.7732 58.4015C27.9767 57.4654 9.25781 35.3096 9.25781 20.8557C9.25781 9.35577 18.6136 0 30.1135 0C41.6135 0 50.9692 9.35577 50.9692 20.8557C50.9692 34.5987 32.2668 57.4164 31.4708 58.3809L30.1341 60ZM30.1135 3.51974C20.5545 3.51974 12.7776 11.2967 12.7776 20.8557C12.7776 26.228 15.981 34.0027 22.0418 43.3397C25.1871 48.1851 28.3543 52.2885 30.0943 54.4601C31.837 52.229 35.0345 47.9906 38.1995 43.0531C44.2511 33.6136 47.4495 25.9373 47.4495 20.8557C47.4495 11.2967 39.6725 3.51974 30.1135 3.51974Z" fill="black"/>
<path d="M30.1341 60L28.7732 58.4015C27.9767 57.4654 9.25781 35.3096 9.25781 20.8557C9.25781 9.35577 18.6136 0 30.1135 0C41.6135 0 50.9692 9.35577 50.9692 20.8557C50.9692 34.5987 32.2668 57.4164 31.4708 58.3809L30.1341 60ZM30.1135 3.51974C20.5545 3.51974 12.7776 11.2967 12.7776 20.8557C12.7776 26.228 15.981 34.0027 22.0418 43.3397C25.1871 48.1851 28.3543 52.2885 30.0943 54.4601C31.837 52.229 35.0345 47.9906 38.1995 43.0531C44.2511 33.6136 47.4495 25.9373 47.4495 20.8557C47.4495 11.2967 39.6725 3.51974 30.1135 3.51974Z" fill="url(#paint1_linear)"/>
<defs>
<linearGradient id="paint0_linear" x1="7.08069" y1="43.0879" x2="44.3877" y2="40.014" gradientUnits="userSpaceOnUse">
<stop stop-color="#1568C4"/>
<stop offset="1" stop-color="#2DB3DE"/>
</linearGradient>
<linearGradient id="paint1_linear" x1="-23.8918" y1="105.6" x2="63.888" y2="100.571" gradientUnits="userSpaceOnUse">
<stop stop-color="#1568C4"/>
<stop offset="1" stop-color="#2DB3DE"/>
</linearGradient>
</defs>
</svg>
