<svg width="39" height="42" viewBox="0 0 39 42" fill="none" xmlns="http://www.w3.org/2000/svg">
<path d="M36.2154 32.1317L30.8102 26.2345C29.7335 25.0647 27.9506 25.1002 26.8365 26.3161L24.1134 29.2861C23.9413 29.1827 23.7632 29.0746 23.576 28.96C21.8564 27.9206 19.5027 26.4959 17.026 23.792C14.542 21.0825 13.2348 18.5109 12.279 16.6337C12.1782 16.4349 12.0815 16.2431 11.9861 16.061L13.8138 14.0702L14.7123 13.0888C15.8281 11.8712 15.8589 9.92673 14.7848 8.75356L9.37959 2.85566C8.30549 1.68413 6.52178 1.71967 5.40595 2.93727L3.88258 4.60867L3.92421 4.65376C3.4134 5.36479 2.98656 6.18486 2.66891 7.06921C2.3761 7.911 2.1938 8.71429 2.11044 9.51922C1.39672 15.974 4.10058 21.8733 11.4385 29.8784C21.5817 40.943 29.7559 40.1071 30.1085 40.0663C30.8765 39.9661 31.6126 39.7659 32.3606 39.449C33.1642 39.1066 33.9154 38.6416 34.5668 38.0855L34.6001 38.1178L36.1434 36.4692C37.2569 35.2518 37.289 33.3067 36.2154 32.1317Z" stroke="black" stroke-width="3"/>
<path d="M36.2154 32.1317L30.8102 26.2345C29.7335 25.0647 27.9506 25.1002 26.8365 26.3161L24.1134 29.2861C23.9413 29.1827 23.7632 29.0746 23.576 28.96C21.8564 27.9206 19.5027 26.4959 17.026 23.792C14.542 21.0825 13.2348 18.5109 12.279 16.6337C12.1782 16.4349 12.0815 16.2431 11.9861 16.061L13.8138 14.0702L14.7123 13.0888C15.8281 11.8712 15.8589 9.92673 14.7848 8.75356L9.37959 2.85566C8.30549 1.68413 6.52178 1.71967 5.40595 2.93727L3.88258 4.60867L3.92421 4.65376C3.4134 5.36479 2.98656 6.18486 2.66891 7.06921C2.3761 7.911 2.1938 8.71429 2.11044 9.51922C1.39672 15.974 4.10058 21.8733 11.4385 29.8784C21.5817 40.943 29.7559 40.1071 30.1085 40.0663C30.8765 39.9661 31.6126 39.7659 32.3606 39.449C33.1642 39.1066 33.9154 38.6416 34.5668 38.0855L34.6001 38.1178L36.1434 36.4692C37.2569 35.2518 37.289 33.3067 36.2154 32.1317Z" stroke="url(#paint0_linear)" stroke-width="3"/>
<defs>
<linearGradient id="paint0_linear" x1="-25.8158" y1="69.0481" x2="47.6606" y2="63.4846" gradientUnits="userSpaceOnUse">
<stop stop-color="#1568C4"/>
<stop offset="1" stop-color="#2DB3DE"/>
</linearGradient>
</defs>
</svg>
