<svg width="17" height="13" viewBox="0 0 17 13" fill="none" xmlns="http://www.w3.org/2000/svg">
<path d="M16.8503 1.37744L11.6945 6.49999L16.8503 11.6225C16.9435 11.4277 17 11.2124 17 10.9824V2.01756C17 1.78757 16.9435 1.57224 16.8503 1.37744Z" fill="#00669C"/>
<path d="M16.8503 1.37744L11.6945 6.49999L16.8503 11.6225C16.9435 11.4277 17 11.2124 17 10.9824V2.01756C17 1.78757 16.9435 1.57224 16.8503 1.37744Z" fill="url(#paint0_linear)"/>
<path d="M15.5058 0.523438H1.49413C1.26413 0.523438 1.04881 0.579983 0.854004 0.673184L7.4436 7.22958C8.02625 7.81222 8.97373 7.81222 9.55638 7.22958L16.146 0.673184C15.9512 0.579983 15.7358 0.523438 15.5058 0.523438Z" fill="#00669C"/>
<path d="M15.5058 0.523438H1.49413C1.26413 0.523438 1.04881 0.579983 0.854004 0.673184L7.4436 7.22958C8.02625 7.81222 8.97373 7.81222 9.55638 7.22958L16.146 0.673184C15.9512 0.579983 15.7358 0.523438 15.5058 0.523438Z" fill="url(#paint1_linear)"/>
<path d="M0.149746 1.37744C0.0565449 1.57224 0 1.78757 0 2.01756V10.9824C0 11.2124 0.0565449 11.4278 0.149746 11.6225L5.30549 6.49999L0.149746 1.37744Z" fill="#00669C"/>
<path d="M0.149746 1.37744C0.0565449 1.57224 0 1.78757 0 2.01756V10.9824C0 11.2124 0.0565449 11.4278 0.149746 11.6225L5.30549 6.49999L0.149746 1.37744Z" fill="url(#paint2_linear)"/>
<path d="M10.9902 7.2041L10.2606 7.93367C9.28982 8.9045 7.71012 8.9045 6.73929 7.93367L6.00975 7.2041L0.854004 12.3266C1.04881 12.4198 1.26413 12.4764 1.49413 12.4764H15.5058C15.7358 12.4764 15.9512 12.4198 16.146 12.3266L10.9902 7.2041Z" fill="#00669C"/>
<path d="M10.9902 7.2041L10.2606 7.93367C9.28982 8.9045 7.71012 8.9045 6.73929 7.93367L6.00975 7.2041L0.854004 12.3266C1.04881 12.4198 1.26413 12.4764 1.49413 12.4764H15.5058C15.7358 12.4764 15.9512 12.4198 16.146 12.3266L10.9902 7.2041Z" fill="url(#paint3_linear)"/>
<defs>
<linearGradient id="paint0_linear" x1="7.47805" y1="19.4088" x2="18.6595" y2="18.9316" gradientUnits="userSpaceOnUse">
<stop stop-color="#1568C4"/>
<stop offset="1" stop-color="#2DB3DE"/>
</linearGradient>
<linearGradient id="paint1_linear" x1="-11.2991" y1="13.0953" x2="20.0131" y2="7.57083" gradientUnits="userSpaceOnUse">
<stop stop-color="#1568C4"/>
<stop offset="1" stop-color="#2DB3DE"/>
</linearGradient>
<linearGradient id="paint2_linear" x1="-4.21647" y1="19.4088" x2="6.96498" y2="18.9316" gradientUnits="userSpaceOnUse">
<stop stop-color="#1568C4"/>
<stop offset="1" stop-color="#2DB3DE"/>
</linearGradient>
<linearGradient id="paint3_linear" x1="-11.2991" y1="16.4833" x2="19.2426" y2="9.18267" gradientUnits="userSpaceOnUse">
<stop stop-color="#1568C4"/>
<stop offset="1" stop-color="#2DB3DE"/>
</linearGradient>
</defs>
</svg>
