<svg width="15" height="16" viewBox="0 0 15 16" fill="none" xmlns="http://www.w3.org/2000/svg">
<path d="M14.9995 11.2527V13.5153C15.0004 13.7253 14.9574 13.9332 14.8732 14.1257C14.7891 14.3181 14.6657 14.4909 14.5109 14.6329C14.3561 14.7749 14.1734 14.883 13.9744 14.9503C13.7754 15.0176 13.5646 15.0426 13.3554 15.0237C11.0346 14.7715 8.80532 13.9784 6.84668 12.7083C5.02441 11.5503 3.47945 10.0054 2.3215 8.1831C1.0469 6.21555 0.253681 3.97544 0.00612159 1.64422C-0.0127254 1.43566 0.0120608 1.22546 0.0789018 1.027C0.145743 0.828549 0.253174 0.646185 0.394356 0.491523C0.535538 0.336862 0.707377 0.213291 0.898932 0.12868C1.09049 0.0440688 1.29756 0.000270328 1.50697 7.31211e-05H3.76956C4.13558 -0.00352925 4.49041 0.126083 4.76793 0.364751C5.04546 0.60342 5.22672 0.934859 5.27795 1.29729C5.37345 2.02137 5.55055 2.73232 5.80589 3.41658C5.90736 3.68652 5.92932 3.9799 5.86917 4.26194C5.80902 4.54399 5.66927 4.80288 5.4665 5.00793L4.50867 5.96576C5.58231 7.85393 7.14568 9.4173 9.03385 10.4909L9.99167 9.53311C10.1967 9.33033 10.4556 9.19059 10.7377 9.13044C11.0197 9.07029 11.3131 9.09225 11.583 9.19372C12.2673 9.44905 12.9782 9.62616 13.7023 9.72166C14.0687 9.77334 14.4033 9.95788 14.6424 10.2402C14.8816 10.5224 15.0087 10.8828 14.9995 11.2527Z" fill="#00669C"/>
</svg>
