<svg width="43" height="47" viewBox="0 0 43 47" fill="none" xmlns="http://www.w3.org/2000/svg">
<path d="M8.11211 45.8856C5.0191 47.7085 1.11267 45.4995 1.08052 41.9094L0.74918 4.90591C0.717036 1.31586 4.58329 -0.962725 7.70844 0.804463L39.9201 19.0193C43.0452 20.7865 43.0854 25.274 39.9924 27.0969L8.11211 45.8856Z" fill="#C4C4C4"/>
<path d="M8.11211 45.8856C5.0191 47.7085 1.11267 45.4995 1.08052 41.9094L0.74918 4.90591C0.717036 1.31586 4.58329 -0.962725 7.70844 0.804463L39.9201 19.0193C43.0452 20.7865 43.0854 25.274 39.9924 27.0969L8.11211 45.8856Z" fill="url(#paint0_linear)"/>
<path d="M8.11211 45.8856C5.0191 47.7085 1.11267 45.4995 1.08052 41.9094L0.74918 4.90591C0.717036 1.31586 4.58329 -0.962725 7.70844 0.804463L39.9201 19.0193C43.0452 20.7865 43.0854 25.274 39.9924 27.0969L8.11211 45.8856Z" fill="url(#paint1_linear)"/>
<defs>
<linearGradient id="paint0_linear" x1="111.5" y1="23" x2="-16.5487" y2="-22.2471" gradientUnits="userSpaceOnUse">
<stop stop-color="#09498F"/>
<stop offset="1" stop-color="#38A6C9"/>
</linearGradient>
<linearGradient id="paint1_linear" x1="123.514" y1="-4.93528" x2="6.23535" y2="-59.0651" gradientUnits="userSpaceOnUse">
<stop stop-color="#1568C4"/>
<stop offset="1" stop-color="#2DB3DE"/>
</linearGradient>
</defs>
</svg>
