<svg width="13" height="12" viewBox="0 0 13 12" fill="none" xmlns="http://www.w3.org/2000/svg">
<path fill-rule="evenodd" clip-rule="evenodd" d="M5.00555 8.0179C6.66532 8.0179 8.01173 6.6713 8.01173 5.00908C8.01173 3.34685 6.66532 2.00025 5.00555 2.00025C3.34578 2.00025 1.99937 3.34685 1.99937 5.00908C1.99937 6.6713 3.34578 8.0179 5.00555 8.0179ZM5.00555 10.0182C7.77004 10.0182 10.0111 7.77551 10.0111 5.00908C10.0111 2.24264 7.77004 0 5.00555 0C2.24106 0 0 2.24264 0 5.00908C0 7.77551 2.24106 10.0182 5.00555 10.0182Z" fill="#00669C"/>
<path fill-rule="evenodd" clip-rule="evenodd" d="M7.30059 7.29649C7.69099 6.90591 8.32395 6.90589 8.71436 7.29645L11.7098 10.2931C12.1002 10.6836 12.1003 11.3169 11.7099 11.7075C11.3195 12.0981 10.6865 12.0981 10.2961 11.7075L7.30063 8.71088C6.91022 8.32032 6.9102 7.68707 7.30059 7.29649Z" fill="#00669C"/>
</svg>
